{
	"asset":{
		"generator":"Khronos glTF Blender I/O v3.6.27",
		"version":"2.0"
	},
	"scene":0,
	"scenes":[
		{
			"name":"Scene",
			"nodes":[
				1
			]
		}
	],
	"nodes":[
		{
			"mesh":0,
			"name":"Sphere_Material.002_0",
			"scale":[
				0.00800000037997961,
				0.00800000037997961,
				0.00800000037997961
			]
		},
		{
			"children":[
				0
			],
			"name":"Sphere",
			"rotation":[
				-0.70710688829422,
				0,
				0,
				0.7071066498756409
			],
			"scale":[
				100,
				99.99999237060547,
				99.99999237060547
			]
		}
	],
	"materials":[
		{
			"doubleSided":true,
			"name":"Material.001",
			"pbrMetallicRoughness":{}
		}
	],
	"meshes":[
		{
			"name":"Sphere_Material.002_0.001",
			"primitives":[
				{
					"attributes":{
						"POSITION":0,
						"NORMAL":1,
						"TEXCOORD_0":2
					},
					"indices":3,
					"material":0
				}
			]
		}
	],
	"accessors":[
		{
			"bufferView":0,
			"componentType":5126,
			"count":3223,
			"max":[
				0.999999463558197,
				0.9999982118606567,
				1
			],
			"min":[
				-0.9999986290931702,
				-0.999998927116394,
				-1
			],
			"type":"VEC3"
		},
		{
			"bufferView":1,
			"componentType":5126,
			"count":3223,
			"type":"VEC3"
		},
		{
			"bufferView":2,
			"componentType":5126,
			"count":3223,
			"type":"VEC2"
		},
		{
			"bufferView":3,
			"componentType":5123,
			"count":17664,
			"type":"SCALAR"
		}
	],
	"bufferViews":[
		{
			"buffer":0,
			"byteLength":38676,
			"byteOffset":0,
			"target":34962
		},
		{
			"buffer":0,
			"byteLength":38676,
			"byteOffset":38676,
			"target":34962
		},
		{
			"buffer":0,
			"byteLength":25784,
			"byteOffset":77352,
			"target":34962
		},
		{
			"buffer":0,
			"byteLength":35328,
			"byteOffset":103136,
			"target":34963
		}
	],
	"buffers":[
		{
			"byteLength":138464,
			"uri":"scene.bin"
		}
	]
}
