{
	"asset":{
		"generator":"Khronos glTF Blender I/O v3.6.27",
		"version":"2.0"
	},
	"scene":0,
	"scenes":[
		{
			"name":"Scene",
			"nodes":[
				4,
				8,
				12
			]
		}
	],
	"nodes":[
		{
			"name":"Clouds_1",
			"rotation":[
				0.1908702701330185,
				0.2025245875120163,
				0.0603143647313118,
				0.9586002826690674
			]
		},
		{
			"name":"Planet_2",
			"rotation":[
				0.1908702701330185,
				0.2025245875120163,
				0.0603143647313118,
				0.9586002826690674
			]
		},
		{
			"children":[
				0,
				1
			],
			"name":"GLTF_SceneRootNode",
			"rotation":[
				0.70710688829422,
				0,
				0,
				0.7071066498756409
			]
		},
		{
			"children":[
				2
			],
			"name":"root"
		},
		{
			"children":[
				3
			],
			"name":"Sketchfab_model",
			"rotation":[
				-0.695625364780426,
				-0.022898241877555847,
				0.02219405211508274,
				0.7176967263221741
			]
		},
		{
			"name":"Sphere",
			"rotation":[
				-0.70710688829422,
				0,
				0,
				0.7071066498756409
			],
			"scale":[
				100,
				99.99999237060547,
				99.99999237060547
			]
		},
		{
			"children":[
				5
			],
			"name":"RootNode"
		},
		{
			"children":[
				6
			],
			"name":"02f22325603542c28d21ef1ee8144a0c.fbx",
			"rotation":[
				0.70710688829422,
				0,
				0,
				0.7071066498756409
			]
		},
		{
			"children":[
				7
			],
			"name":"Sketchfab_model.001",
			"rotation":[
				-0.70710688829422,
				0,
				0,
				0.7071066498756409
			]
		},
		{
			"mesh":0,
			"name":"Object_3",
			"scale":[
				0.8999999761581421,
				0.8999999761581421,
				0.8999999761581421
			],
			"translation":[
				-0.9700000286102295,
				1.0299999713897705,
				-0.7400000095367432
			]
		},
		{
			"children":[
				9
			],
			"name":"Object_2"
		},
		{
			"children":[
				10
			],
			"name":"Uranus.obj.cleaner.materialmerger.gles",
			"translation":[
				0,
				-1.9243700504302979,
				-0.1693740040063858
			]
		},
		{
			"children":[
				11
			],
			"name":"Sketchfab_model.002",
			"rotation":[
				-0.70710688829422,
				0,
				0,
				0.7071066498756409
			]
		}
	],
	"animations":[
		{
			"channels":[
				{
					"sampler":0,
					"target":{
						"node":0,
						"path":"rotation"
					}
				},
				{
					"sampler":1,
					"target":{
						"node":0,
						"path":"scale"
					}
				},
				{
					"sampler":2,
					"target":{
						"node":1,
						"path":"rotation"
					}
				},
				{
					"sampler":3,
					"target":{
						"node":1,
						"path":"scale"
					}
				}
			],
			"name":"Animation",
			"samplers":[
				{
					"input":4,
					"interpolation":"LINEAR",
					"output":5
				},
				{
					"input":6,
					"interpolation":"STEP",
					"output":7
				},
				{
					"input":4,
					"interpolation":"LINEAR",
					"output":8
				},
				{
					"input":6,
					"interpolation":"STEP",
					"output":9
				}
			]
		}
	],
	"materials":[
		{
			"doubleSided":true,
			"name":"moon",
			"pbrMetallicRoughness":{
				"baseColorTexture":{
					"index":0
				},
				"metallicFactor":0,
				"roughnessFactor":0.6000000238418579
			}
		}
	],
	"meshes":[
		{
			"name":"Object_0.001",
			"primitives":[
				{
					"attributes":{
						"POSITION":0,
						"NORMAL":1,
						"TEXCOORD_0":2
					},
					"indices":3,
					"material":0
				}
			]
		}
	],
	"textures":[
		{
			"sampler":0,
			"source":0
		}
	],
	"images":[
		{
			"mimeType":"image/jpeg",
			"name":"moon_baseColor",
			"uri":"tex/moon_baseColor.jpg"
		}
	],
	"accessors":[
		{
			"bufferView":0,
			"componentType":5126,
			"count":16422,
			"max":[
				2.000002145767212,
				2.0000009536743164,
				2
			],
			"min":[
				0,
				0,
				0
			],
			"type":"VEC3"
		},
		{
			"bufferView":1,
			"componentType":5126,
			"count":16422,
			"type":"VEC3"
		},
		{
			"bufferView":2,
			"componentType":5126,
			"count":16422,
			"type":"VEC2"
		},
		{
			"bufferView":3,
			"componentType":5123,
			"count":97536,
			"type":"SCALAR"
		},
		{
			"bufferView":4,
			"componentType":5126,
			"count":361,
			"max":[
				15
			],
			"min":[
				0
			],
			"type":"SCALAR"
		},
		{
			"bufferView":5,
			"componentType":5126,
			"count":361,
			"type":"VEC4"
		},
		{
			"bufferView":6,
			"componentType":5126,
			"count":2,
			"max":[
				15
			],
			"min":[
				0
			],
			"type":"SCALAR"
		},
		{
			"bufferView":7,
			"componentType":5126,
			"count":2,
			"type":"VEC3"
		},
		{
			"bufferView":8,
			"componentType":5126,
			"count":361,
			"type":"VEC4"
		},
		{
			"bufferView":9,
			"componentType":5126,
			"count":2,
			"type":"VEC3"
		}
	],
	"bufferViews":[
		{
			"buffer":0,
			"byteLength":197064,
			"byteOffset":0,
			"target":34962
		},
		{
			"buffer":0,
			"byteLength":197064,
			"byteOffset":197064,
			"target":34962
		},
		{
			"buffer":0,
			"byteLength":131376,
			"byteOffset":394128,
			"target":34962
		},
		{
			"buffer":0,
			"byteLength":195072,
			"byteOffset":525504,
			"target":34963
		},
		{
			"buffer":0,
			"byteLength":1444,
			"byteOffset":720576
		},
		{
			"buffer":0,
			"byteLength":5776,
			"byteOffset":722020
		},
		{
			"buffer":0,
			"byteLength":8,
			"byteOffset":727796
		},
		{
			"buffer":0,
			"byteLength":24,
			"byteOffset":727804
		},
		{
			"buffer":0,
			"byteLength":5776,
			"byteOffset":727828
		},
		{
			"buffer":0,
			"byteLength":24,
			"byteOffset":733604
		}
	],
	"samplers":[
		{
			"magFilter":9729,
			"minFilter":9987
		}
	],
	"buffers":[
		{
			"byteLength":733628,
			"uri":"scene.bin"
		}
	]
}
